HIERARCHY
ROOT hip
{
	OFFSET 0.000000 0.000000 0.000000 
	CHANNELS 6 Xposition Yposition Zposition Xrotation Zrotation Yrotation
	JOINT abdomen
	{
		OFFSET 0.000000 3.402643 0.000000 
		CHANNELS 3 Xrotation Zrotation Yrotation
		JOINT chest
		{
			OFFSET 0.000000 8.438565 -0.680529 
			CHANNELS 3 Xrotation Zrotation Yrotation
			JOINT neck
			{
				OFFSET 0.000000 10.207942 -0.272212 
				CHANNELS 3 Xrotation Zrotation Yrotation
				JOINT head
				{
					OFFSET 0.000000 3.130431 0.000000 
					CHANNELS 3 Xrotation Zrotation Yrotation
					End Site
					{
						OFFSET 0.000000 3.130435 0.000000 
					}
				}
			}
			JOINT lCollar
			{
				OFFSET 3.470700 6.669187 -0.816635 
				CHANNELS 3 Yrotation Zrotation Xrotation
				JOINT lShldr
				{
					OFFSET 3.198488 0.000000 0.000000 
					CHANNELS 3 Zrotation Yrotation Xrotation
					JOINT lForeArm
					{
						OFFSET 10.139888 0.000000 0.000000 
						CHANNELS 3 Yrotation Zrotation Xrotation
						JOINT lHand
						{
							OFFSET 8.370511 0.000000 0.000000 
							CHANNELS 3 Zrotation Yrotation Xrotation
							End Site
							{
								OFFSET 4.083176 0.000000 0.000000 
							}
						}
					}
				}
			}
			JOINT rCollar
			{
				OFFSET -3.470700 6.669187 -0.816635 
				CHANNELS 3 Yrotation Zrotation Xrotation
				JOINT rShldr
				{
					OFFSET -3.198488 0.000000 0.000000 
					CHANNELS 3 Zrotation Yrotation Xrotation
					JOINT rForeArm
					{
						OFFSET -10.139888 0.000000 0.000000 
						CHANNELS 3 Yrotation Zrotation Xrotation
						JOINT rHand
						{
							OFFSET -8.370511 0.000000 0.000000 
							CHANNELS 3 Zrotation Yrotation Xrotation
							End Site
							{
								OFFSET -4.083176 0.000000 0.000000 
							}
						}
					}
				}
			}
		}
	}
	JOINT lThigh
	{
		OFFSET 5.308129 -1.633274 1.361059 
		CHANNELS 3 Xrotation Zrotation Yrotation
		JOINT lShin
		{
			OFFSET -2.041588 -20.007561 0.000000 
			CHANNELS 3 Xrotation Zrotation Yrotation
			JOINT lFoot
			{
				OFFSET 0.000000 -19.190928 -1.224953 
				CHANNELS 3 Xrotation Yrotation Zrotation
				End Site
				{
					OFFSET 0.000000 -2.449906 4.627600 
				}
			}
		}
	}
	JOINT rThigh
	{
		OFFSET -5.308129 -1.633274 1.361059 
		CHANNELS 3 Xrotation Zrotation Yrotation
		JOINT rShin
		{
			OFFSET 2.041588 -20.007561 0.000000 
			CHANNELS 3 Xrotation Zrotation Yrotation
			JOINT rFoot
			{
				OFFSET 0.000000 -19.190928 -1.224953 
				CHANNELS 3 Xrotation Yrotation Zrotation
				End Site
				{
					OFFSET 0.000000 -2.449906 4.627600 
				}
			}
		}
	}
}
MOTION
Frames: 20
Frame Time: 0.033333
0.190494 44.346222 -6.751504 -2.559003 -1.024368 -10.061650 0.000000 0.000000 0.000000 21.139437 -3.680571 4.427553 8.105745 5.181063 -13.180104 -26.444614 -6.803227 -7.145532 -3.519355 9.157742 6.311733 -73.819336 15.687681 3.034858 -45.188953 -17.313662 14.288033 12.341010 -1.154294 -9.099424 3.090466 -14.082293 8.028685 75.982841 4.511761 17.699043 12.315188 -5.096700 39.303658 -3.652903 -2.175362 -8.499772 -19.364599 16.024605 12.660746 51.644810 -2.814997 -21.367632 -11.820719 -0.834938 5.918176 -24.120138 -5.957123 -8.447322 47.846436 -5.900949 1.455712 -13.972874 0.403765 -2.887344 
0.146350 43.553883 -6.419638 -5.206073 -1.118415 -9.575858 0.000000 0.000000 0.000000 23.287439 -4.154480 4.786029 17.739843 5.009232 -14.246576 -20.621838 -9.890957 -7.744243 -3.519355 9.157742 6.311733 -73.220505 14.854608 1.749278 -45.705288 -17.898895 14.280948 11.228379 -1.952245 -9.002838 3.090466 -14.082293 8.028685 76.677742 3.636499 16.999428 12.423433 -5.613582 39.417118 -4.551080 -1.324546 -8.549371 -17.821552 15.956017 13.090784 54.917908 -2.121987 -20.773838 -13.802372 -1.354262 8.232882 -22.997187 -6.083900 -8.500278 52.059673 -7.226470 0.241695 -16.971672 0.694764 -4.039153 
0.070313 43.499146 -6.152168 -5.948852 -1.320975 -8.299901 0.000000 0.000000 0.000000 23.745003 -3.737498 3.669641 22.000338 7.044483 -14.110223 -6.336414 -17.683477 -6.501606 -3.519355 9.157742 6.311733 -74.771942 15.084872 0.214158 -45.010902 -16.951389 12.242743 10.722300 -3.527288 -8.976563 3.090466 -14.082293 8.028685 78.110825 3.377048 16.741261 11.239653 -6.491689 38.014614 -4.731916 1.174428 -8.505904 -16.900805 16.596006 13.765073 55.061886 -2.298580 -22.225554 -14.244746 -1.516901 8.932590 -21.649920 -6.474430 -9.423563 52.212887 -6.855030 -0.044978 -17.684374 0.796980 -4.386314 
0.053184 43.973419 -6.023803 -5.685514 -1.486794 -7.371576 0.000000 0.000000 0.000000 23.500423 -2.507880 1.595309 22.928095 4.190001 -11.479014 2.050594 -15.974578 -6.031114 -3.519355 9.157742 6.311733 -78.000870 16.344715 -1.241609 -43.295078 -14.989869 10.141604 10.798407 -4.748744 -9.021948 3.090466 -14.082293 8.028685 75.548012 0.853764 15.393264 18.719004 -2.036195 38.984303 -4.711107 2.646523 -8.461688 -15.859474 17.206997 14.473217 52.759594 -3.015891 -24.522924 -13.416159 -1.341729 8.353353 -20.317217 -7.009254 -10.302621 49.895683 -5.792566 0.703306 -16.765066 0.724707 -4.098231 
0.117960 44.762207 -6.160258 -3.927237 -1.558833 -7.275850 0.000000 0.000000 0.000000 21.960545 -2.210098 2.087550 25.614861 2.622538 -8.207197 -6.472476 -6.697156 -5.017972 -3.519355 9.157742 6.311733 -79.508324 17.681271 -1.035576 -44.663521 -15.132532 10.104146 11.201463 -4.901734 -9.085653 3.090466 -14.082293 8.028685 76.795113 -0.052991 15.192161 17.661243 -3.596220 38.160267 -5.425302 1.699037 -8.574924 -16.064013 17.049875 14.116753 48.912773 -3.750961 -25.916687 -11.543607 -0.942843 6.577291 -20.084290 -7.176046 -10.584980 45.631233 -4.357915 1.798811 -14.581339 0.475656 -3.182181 
0.220063 45.652481 -6.459714 -1.015984 -1.523198 -7.834328 0.000000 0.000000 0.000000 18.740799 -1.868146 4.073054 19.833565 4.253848 -7.300614 -9.110194 -4.913010 -3.863503 -3.519355 9.157742 6.311733 -80.273819 18.434885 0.406678 -45.493439 -15.471658 10.851867 11.052274 -4.813294 -9.070560 3.090466 -14.082293 8.028685 78.960266 -0.342113 15.603697 13.003410 -6.704191 37.057739 -5.299540 1.785552 -8.560419 -17.117422 16.657526 13.439550 44.065796 -4.623147 -24.977356 -9.649763 -0.532604 4.373637 -20.710964 -7.030221 -10.351124 39.981834 -2.714083 2.850460 -11.722159 0.239936 -2.129246 
0.323494 46.421440 -6.782447 1.846339 -1.503126 -8.652204 0.000000 0.000000 0.000000 15.540151 -1.119637 5.489325 13.662322 3.973632 -5.351194 -14.279987 -1.835508 -2.594679 -3.519355 9.157742 6.311733 -81.647797 18.589001 1.016150 -44.228161 -14.248888 11.057648 10.522469 -4.302908 -8.977787 3.090466 -14.082293 8.028685 79.512444 -0.417405 16.962725 10.458513 -8.046909 37.959606 -4.241182 0.128698 -8.476232 -18.338179 16.384453 12.648846 39.723068 -5.237004 -23.567373 -7.929808 -0.186582 2.230921 -21.361830 -6.628324 -9.809273 34.437870 -1.347227 3.637012 -8.857213 0.058490 -1.102348 
0.380320 46.864544 -7.089852 3.497541 -1.647318 -9.348955 0.000000 0.000000 0.000000 14.102271 -0.568280 5.736053 10.493543 2.959706 -3.328275 -24.067564 1.627848 -2.391157 -3.519355 9.157742 6.311733 -82.024742 18.425686 1.397152 -42.944969 -13.030791 9.528984 9.421215 -3.997751 -8.803874 3.090466 -14.082293 8.028685 79.016251 0.417303 18.447092 10.505100 -7.721763 39.424484 -2.492212 0.797839 -8.268020 -19.087774 16.371817 12.090052 37.077374 -5.431857 -22.806717 -6.942008 -0.025565 1.014774 -21.659311 -6.083629 -9.296782 30.904585 -0.575970 4.290356 -7.037792 -0.035282 -0.454371 
0.406674 46.859623 -7.325668 3.341483 -1.793822 -9.724113 0.000000 0.000000 0.000000 14.815295 -0.604224 5.474859 12.461622 3.495075 -2.671834 -33.379414 -0.254073 -0.523326 -3.519355 9.157742 6.311733 -80.221291 18.045094 2.072717 -43.621006 -13.320964 9.551862 9.246474 -5.095510 -8.799522 3.090466 -14.082293 8.028685 78.575935 2.317092 20.075735 9.975785 -7.198779 38.905735 -3.165582 0.821598 -8.346819 -19.157080 16.441383 11.989821 37.055073 -5.301535 -22.252573 -6.826820 -0.007345 0.883654 -21.674503 -5.876692 -9.117984 30.611443 -0.556351 4.567076 -6.843557 -0.050318 -0.321834 
0.399765 46.378010 -7.525430 1.856536 -1.942340 -9.994883 0.000000 0.000000 0.000000 17.212046 -1.361954 5.456932 15.428722 2.899409 -3.679095 -31.098278 -3.172916 -0.279231 -3.519355 9.157742 6.311733 -77.251335 16.937788 2.320545 -44.978531 -14.345831 9.903976 9.226183 -4.585793 -8.791677 3.090466 -14.082293 8.028685 78.280548 4.111684 20.367168 10.109661 -6.675361 38.582935 -4.297075 0.811123 -8.458858 -19.332468 16.724012 12.278145 40.172665 -4.846353 -22.258854 -7.679604 -0.114881 1.726455 -22.307085 -5.651670 -8.991527 34.197342 -1.595853 4.492015 -7.846342 -0.021593 -0.653335 
0.357088 45.508312 -7.614572 -0.185634 -1.757803 -10.043138 0.000000 0.000000 0.000000 20.147453 -2.530606 5.341078 19.053881 -0.694200 -3.955543 -22.863583 -0.649710 -3.069208 -3.519355 9.157742 6.311733 -74.012856 16.562611 1.688973 -47.672256 -15.975924 9.824009 9.559598 -4.294431 -8.832040 3.090466 -14.082293 8.028685 76.706047 3.680252 18.940720 15.202041 -4.241627 40.061726 -6.193286 -0.645552 -8.698945 -19.834024 16.816467 12.624240 45.348568 -4.154404 -22.706184 -9.236888 -0.342274 3.253103 -23.549719 -5.632989 -8.812933 40.247879 -3.417267 3.660702 -10.112020 0.130704 -1.492975 
0.268278 44.477371 -7.459426 -2.979567 -1.521379 -9.559521 0.000000 0.000000 0.000000 23.401354 -3.334701 4.260698 25.766275 -0.757178 -5.065386 -15.491678 -1.836559 -3.661381 -3.519355 9.157742 6.311733 -72.513687 17.164574 0.264498 -49.129677 -16.012852 9.481859 10.079874 -4.657962 -8.914763 3.090466 -14.082293 8.028685 73.352303 1.121378 16.733116 24.497581 1.421811 40.097595 -8.048962 0.597102 -8.877914 -19.468065 16.693144 12.981921 50.704365 -3.140397 -22.918238 -11.341753 -0.751671 5.508467 -23.831669 -5.906068 -8.808073 46.728527 -5.315190 2.219635 -13.206513 0.346591 -2.638921 
0.152545 43.587856 -7.128791 -5.666316 -1.613177 -8.502136 0.000000 0.000000 0.000000 26.842857 -3.852792 2.612772 29.217022 1.999719 -6.620201 -6.699142 -6.067778 -3.754486 -3.519355 9.157742 6.311733 -72.040024 19.257734 -1.610688 -50.891552 -16.193748 8.158595 9.829482 -5.775657 -8.906131 3.090466 -14.082293 8.028685 73.191467 -0.144125 15.786386 26.661985 2.717515 39.359390 -6.318614 1.042664 -8.684458 -18.386654 16.940405 13.412858 54.807323 -2.289188 -22.924980 -13.317653 -1.262239 7.945032 -23.012440 -6.169705 -9.254491 51.814140 -6.532953 0.717865 -16.432241 0.649095 -3.795009 
0.071874 43.273689 -6.937687 -6.419146 -1.785617 -7.494551 0.000000 0.000000 0.000000 28.414557 -3.419664 1.637736 27.597548 2.129512 -7.892388 -4.841984 -5.652333 -5.175346 -3.519355 9.157742 6.311733 -73.309082 20.753216 -2.297358 -49.908409 -15.227891 6.538230 9.445630 -6.625731 -8.861302 3.090466 -14.082293 8.028685 73.560745 -1.474830 15.663214 26.037300 2.930066 37.916370 -5.461205 2.098293 -8.567820 -17.973543 17.580080 13.986140 55.968323 -2.233044 -24.127453 -14.029400 -1.493745 8.897182 -22.368872 -6.404563 -10.030965 53.033802 -6.464523 -0.044908 -17.746054 0.792936 -4.311296 
0.062271 43.688450 -6.945495 -5.198081 -1.867295 -7.173997 0.000000 0.000000 0.000000 27.152639 -2.303015 1.514390 24.181217 1.671606 -9.101996 -7.740323 -5.023959 -6.517731 -3.519355 9.157742 6.311733 -76.235764 21.180820 -1.867427 -45.282864 -13.307839 6.254654 9.726727 -6.459653 -8.905275 3.090466 -14.082293 8.028685 73.756752 -2.528022 17.087618 23.587009 2.597387 37.859333 -4.594612 0.966794 -8.499121 -18.230400 18.190029 14.493134 54.038189 -3.032291 -25.440796 -13.501621 -1.349433 8.394528 -22.378248 -6.628983 -10.428946 50.831329 -5.587211 0.694857 -16.772350 0.699223 -4.134648 
0.130829 44.541908 -6.968441 -3.146092 -1.803920 -7.879429 0.000000 0.000000 0.000000 23.680937 -2.218157 3.402487 19.735638 3.925461 -9.834914 -9.242541 -5.086149 -6.470946 -3.519355 9.157742 6.311733 -77.736176 21.969652 -0.684275 -42.388229 -13.337252 7.896633 9.527570 -4.781621 -8.841570 3.090466 -14.082293 8.028685 77.113884 -2.163466 19.624292 14.911773 -2.277335 39.269592 -2.850793 0.895370 -8.297588 -18.217306 17.618696 13.940093 49.798050 -3.725607 -25.483459 -11.779673 -0.950678 6.587695 -22.385893 -6.569379 -10.193840 46.346882 -4.387356 1.748019 -14.145876 0.431325 -3.005451 
0.214479 45.560268 -7.038988 -0.517833 -1.796802 -8.919317 0.000000 0.000000 0.000000 19.707623 -1.820414 5.343864 15.679341 5.919729 -10.205523 -12.855857 -3.936338 -6.345172 -3.519355 9.157742 6.311733 -79.165543 23.228315 0.388532 -41.193108 -12.917597 10.065868 9.281599 -3.474592 -8.782556 3.090466 -14.082293 8.028685 79.936790 -1.723066 21.289188 8.321014 -6.970547 41.299992 -0.249783 1.804771 -7.958717 -18.426798 17.254480 13.331392 44.700062 -4.603943 -24.445162 -9.281463 -0.425411 3.817379 -22.220181 -6.218229 -9.674493 40.139599 -2.834714 3.102828 -11.017292 0.175341 -1.713014 
0.282190 46.512234 -7.133003 2.169215 -1.941968 -9.370708 0.000000 0.000000 0.000000 16.416801 -0.552683 5.706217 9.058002 6.854158 -9.960076 -15.472153 -2.425464 -5.811401 -3.519355 9.157742 6.311733 -81.504341 23.848700 0.144353 -39.147598 -10.737711 11.144436 9.270940 -3.830792 -8.788152 3.090466 -14.082293 8.028685 79.164688 -2.436928 21.887897 9.475341 -6.976516 43.520515 0.872151 1.954085 -7.816546 -18.777031 16.979288 12.583906 39.379005 -5.165441 -22.982491 -7.369815 -0.093021 1.585001 -21.794130 -5.838962 -9.406239 33.636784 -1.142202 3.866675 -7.663479 -0.012525 -0.455837 
0.281950 46.996078 -7.190348 3.899523 -2.260385 -9.343756 0.000000 0.000000 0.000000 14.609861 0.463044 5.443038 2.793423 7.777777 -9.179142 -19.651125 -0.756994 -4.778775 -3.519355 9.157742 6.311733 -82.319885 24.664671 -0.905185 -39.313812 -9.531020 11.162146 8.419486 -4.428898 -8.674464 3.090466 -14.082293 8.028685 78.651833 -2.449278 21.257105 10.144624 -7.462687 43.782906 0.514726 1.903325 -7.858212 -19.303791 17.066559 12.089375 36.474976 -5.341373 -22.377991 -6.325621 0.045305 0.350814 -21.502068 -5.458409 -9.331393 29.754719 0.000057 3.993206 -5.888504 -0.098118 0.191263 
0.254273 46.896339 -7.224414 3.870861 -2.494304 -9.407263 0.000000 0.000000 0.000000 14.493894 0.869849 5.264034 0.855795 8.208410 -7.913430 -28.134766 0.000000 -3.583985 -3.519355 9.157742 6.311733 -80.618866 24.912163 -1.234356 -40.916355 -9.862143 11.831001 7.269223 -4.920478 -8.499781 3.090466 -14.082293 8.028685 77.949310 -1.888401 20.116026 10.619588 -7.823463 42.562241 -0.393587 1.498370 -7.992477 -19.704237 17.310793 11.998881 37.235260 -5.068619 -22.262882 -6.402267 0.033042 0.494878 -21.597246 -5.252388 -9.348307 29.972328 0.058931 3.676100 -6.367021 -0.056877 0.017417 
